HIERARCHY
ROOT Hips
{
	OFFSET 0.000000 105.849998 0.000017
	CHANNELS 6 Xposition Yposition Zposition Yrotation Zrotation Xrotation
	JOINT RightUpLeg
	{
		OFFSET -11.500000 -1.849998 -0.000000
		CHANNELS 3 Yrotation Zrotation Xrotation
		JOINT RightLeg
		{
			OFFSET 0.000000 -48.000000 -0.000008
			CHANNELS 3 Yrotation Zrotation Xrotation
			JOINT RightFoot
			{
				OFFSET 0.000000 -48.000000 -0.000008
				CHANNELS 3 Yrotation Zrotation Xrotation
				End Site
				{
					OFFSET 0.000000 -8.000003 19.599998
				}
			}
		}
	}
	JOINT LeftUpLeg
	{
		OFFSET 11.500000 -1.849998 -0.000000
		CHANNELS 3 Yrotation Zrotation Xrotation
		JOINT LeftLeg
		{
			OFFSET 0.000000 -48.000000 -0.000008
			CHANNELS 3 Yrotation Zrotation Xrotation
			JOINT LeftFoot
			{
				OFFSET 0.000000 -48.000000 -0.000008
				CHANNELS 3 Yrotation Zrotation Xrotation
				End Site
				{
					OFFSET 0.000000 -8.000003 19.599998
				}
			}
		}
	}
	JOINT Spine
	{
		OFFSET 0.000000 16.653999 0.000003
		CHANNELS 3 Yrotation Zrotation Xrotation
		JOINT Spine1
		{
			OFFSET 0.000000 11.311996 0.000002
			CHANNELS 3 Yrotation Zrotation Xrotation
			JOINT Spine2
			{
				OFFSET 0.000000 11.779999 0.000002
				CHANNELS 3 Yrotation Zrotation Xrotation
				JOINT Spine3
				{
					OFFSET 0.000000 11.311996 0.000002
					CHANNELS 3 Yrotation Zrotation Xrotation
					JOINT Neck
					{
						OFFSET 0.000000 12.091003 0.000002
						CHANNELS 3 Yrotation Zrotation Xrotation
						JOINT Head
						{
							OFFSET 0.000000 9.000000 0.000001
							CHANNELS 3 Yrotation Zrotation Xrotation
							End Site
							{
								OFFSET 0.000000 18.000000 0.000003
							}
						}
					}
					JOINT RightShoulder
					{
						OFFSET -3.500000 8.061005 0.000001
						CHANNELS 3 Yrotation Zrotation Xrotation
						JOINT RightArm
						{
							OFFSET -14.000000 0.000000 -0.000000
							CHANNELS 3 Yrotation Zrotation Xrotation
							JOINT RightForeArm
							{
								OFFSET -29.000000 0.000000 -0.000000
								CHANNELS 3 Yrotation Zrotation Xrotation
								JOINT RightHand
								{
									OFFSET -28.000000 0.000000 -0.000000
									CHANNELS 3 Yrotation Zrotation Xrotation
									JOINT RightHandThumb1
									{
										OFFSET -2.702003 0.205994 3.388000
										CHANNELS 3 Yrotation Zrotation Xrotation
										JOINT RightHandThumb2
										{
											OFFSET -3.998001 0.000000 -0.000000
											CHANNELS 3 Yrotation Zrotation Xrotation
											JOINT RightHandThumb3
											{
												OFFSET -2.778000 0.000000 -0.000000
												CHANNELS 3 Yrotation Zrotation Xrotation
												End Site
												{
													OFFSET -2.381996 0.000000 -0.000000
												}
											}
										}
									}
									JOINT RightInHandIndex
									{
										OFFSET -3.500000 0.552002 2.148000
										CHANNELS 3 Yrotation Zrotation Xrotation
										JOINT RightHandIndex1
										{
											OFFSET -5.664001 -0.098999 1.085000
											CHANNELS 3 Yrotation Zrotation Xrotation
											JOINT RightHandIndex2
											{
												OFFSET -3.930000 0.000000 -0.000000
												CHANNELS 3 Yrotation Zrotation Xrotation
												JOINT RightHandIndex3
												{
													OFFSET -2.227997 0.000000 -0.000000
													CHANNELS 3 Yrotation Zrotation Xrotation
													End Site
													{
														OFFSET -1.959999 0.000000 -0.000000
													}
												}
											}
										}
									}
									JOINT RightInHandMiddle
									{
										OFFSET -3.671997 0.561996 0.822000
										CHANNELS 3 Yrotation Zrotation Xrotation
										JOINT RightHandMiddle1
										{
											OFFSET -5.617996 -0.091003 0.341000
											CHANNELS 3 Yrotation Zrotation Xrotation
											JOINT RightHandMiddle2
											{
												OFFSET -4.288002 0.000000 -0.000000
												CHANNELS 3 Yrotation Zrotation Xrotation
												JOINT RightHandMiddle3
												{
													OFFSET -2.688004 0.000000 -0.000000
													CHANNELS 3 Yrotation Zrotation Xrotation
													End Site
													{
														OFFSET -2.143997 0.000000 -0.000000
													}
												}
											}
										}
									}
									JOINT RightInHandRing
									{
										OFFSET -3.653999 0.584000 -0.140000
										CHANNELS 3 Yrotation Zrotation Xrotation
										JOINT RightHandRing1
										{
											OFFSET -5.031998 -0.024002 -0.520000
											CHANNELS 3 Yrotation Zrotation Xrotation
											JOINT RightHandRing2
											{
												OFFSET -3.737000 0.000000 -0.000000
												CHANNELS 3 Yrotation Zrotation Xrotation
												JOINT RightHandRing3
												{
													OFFSET -2.593002 0.000000 -0.000000
													CHANNELS 3 Yrotation Zrotation Xrotation
													End Site
													{
														OFFSET -2.015999 0.000000 -0.000000
													}
												}
											}
										}
									}
									JOINT RightInHandPinky
									{
										OFFSET -3.431999 0.509995 -1.305000
										CHANNELS 3 Yrotation Zrotation Xrotation
										JOINT RightHandPinky1
										{
											OFFSET -4.496002 -0.024002 -1.184000
											CHANNELS 3 Yrotation Zrotation Xrotation
											JOINT RightHandPinky2
											{
												OFFSET -2.993004 0.000000 -0.000000
												CHANNELS 3 Yrotation Zrotation Xrotation
												JOINT RightHandPinky3
												{
													OFFSET -1.890999 0.000000 -0.000000
													CHANNELS 3 Yrotation Zrotation Xrotation
													End Site
													{
														OFFSET -1.786003 0.000000 -0.000000
													}
												}
											}
										}
									}
								}
							}
						}
					}
					JOINT LeftShoulder
					{
						OFFSET 3.500000 8.061005 0.000001
						CHANNELS 3 Yrotation Zrotation Xrotation
						JOINT LeftArm
						{
							OFFSET 14.000000 0.000000 -0.000000
							CHANNELS 3 Yrotation Zrotation Xrotation
							JOINT LeftForeArm
							{
								OFFSET 29.000000 0.000000 -0.000000
								CHANNELS 3 Yrotation Zrotation Xrotation
								JOINT LeftHand
								{
									OFFSET 28.000000 0.000000 -0.000000
									CHANNELS 3 Yrotation Zrotation Xrotation
									JOINT LeftHandThumb1
									{
										OFFSET 2.702003 0.205994 3.388000
										CHANNELS 3 Yrotation Zrotation Xrotation
										JOINT LeftHandThumb2
										{
											OFFSET 3.998001 0.000000 -0.000000
											CHANNELS 3 Yrotation Zrotation Xrotation
											JOINT LeftHandThumb3
											{
												OFFSET 2.778000 0.000000 -0.000000
												CHANNELS 3 Yrotation Zrotation Xrotation
												End Site
												{
													OFFSET 2.381996 0.000000 -0.000000
												}
											}
										}
									}
									JOINT LeftInHandIndex
									{
										OFFSET 3.500000 0.552002 2.148000
										CHANNELS 3 Yrotation Zrotation Xrotation
										JOINT LeftHandIndex1
										{
											OFFSET 5.664001 -0.098999 1.085000
											CHANNELS 3 Yrotation Zrotation Xrotation
											JOINT LeftHandIndex2
											{
												OFFSET 3.930000 0.000000 -0.000000
												CHANNELS 3 Yrotation Zrotation Xrotation
												JOINT LeftHandIndex3
												{
													OFFSET 2.227997 0.000000 -0.000000
													CHANNELS 3 Yrotation Zrotation Xrotation
													End Site
													{
														OFFSET 1.959999 0.000000 -0.000000
													}
												}
											}
										}
									}
									JOINT LeftInHandMiddle
									{
										OFFSET 3.671997 0.561996 0.822000
										CHANNELS 3 Yrotation Zrotation Xrotation
										JOINT LeftHandMiddle1
										{
											OFFSET 5.617996 -0.091003 0.341000
											CHANNELS 3 Yrotation Zrotation Xrotation
											JOINT LeftHandMiddle2
											{
												OFFSET 4.288002 0.000000 -0.000000
												CHANNELS 3 Yrotation Zrotation Xrotation
												JOINT LeftHandMiddle3
												{
													OFFSET 2.688004 0.000000 -0.000000
													CHANNELS 3 Yrotation Zrotation Xrotation
													End Site
													{
														OFFSET 2.143997 0.000000 -0.000000
													}
												}
											}
										}
									}
									JOINT LeftInHandRing
									{
										OFFSET 3.653999 0.584000 -0.140000
										CHANNELS 3 Yrotation Zrotation Xrotation
										JOINT LeftHandRing1
										{
											OFFSET 5.031998 -0.024002 -0.520000
											CHANNELS 3 Yrotation Zrotation Xrotation
											JOINT LeftHandRing2
											{
												OFFSET 3.737000 0.000000 -0.000000
												CHANNELS 3 Yrotation Zrotation Xrotation
												JOINT LeftHandRing3
												{
													OFFSET 2.593002 0.000000 -0.000000
													CHANNELS 3 Yrotation Zrotation Xrotation
													End Site
													{
														OFFSET 2.015999 0.000000 -0.000000
													}
												}
											}
										}
									}
									JOINT LeftInHandPinky
									{
										OFFSET 3.431999 0.509995 -1.305000
										CHANNELS 3 Yrotation Zrotation Xrotation
										JOINT LeftHandPinky1
										{
											OFFSET 4.496002 -0.024002 -1.184000
											CHANNELS 3 Yrotation Zrotation Xrotation
											JOINT LeftHandPinky2
											{
												OFFSET 2.993004 0.000000 -0.000000
												CHANNELS 3 Yrotation Zrotation Xrotation
												JOINT LeftHandPinky3
												{
													OFFSET 1.890999 0.000000 -0.000000
													CHANNELS 3 Yrotation Zrotation Xrotation
													End Site
													{
														OFFSET 1.786003 0.000000 -0.000000
													}
												}
											}
										}
									}
								}
							}
						}
					}
				}
			}
		}
	}
}
MOTION
Frames: 6
Frame Time: 0.041667
0.000000 -0.000001 51.274857 -0.000112 6.289632 2.668108 -5.104302 -8.379123 -25.506713 0.271244 -0.443922 8.386603 3.764377 3.860693 -14.297344 2.467205 -3.182528 13.579837 -0.123790 0.220871 4.077967 -3.452716 -2.353408 -2.666835 -0.229146 -4.911689 -0.007112 -0.000000 -0.000000 0.000000 -0.000000 -0.000000 0.000000 -0.000000 -0.000000 0.000000 -0.047899 -1.028057 -0.000459 0.000001 0.000017 -3.131922 -40.308139 -6.592764 5.390092 -36.753962 -1.874499 8.199120 -19.522861 -4.888237 13.787417 -0.081387 0.505191 -0.615130 0.000003 0.000001 0.000002 -0.000004 -0.000000 -0.000001 -0.000001 -0.000000 -0.000001 -0.000003 0.000001 -0.000003 0.000002 -0.000001 0.000000 0.000004 0.000001 0.000002 -0.000002 -0.000000 0.000002 0.000004 0.000003 -0.000001 0.000000 -0.000002 0.000000 -0.000001 -0.000000 0.000001 0.000002 -0.000002 0.000003 0.000002 -0.000001 -0.000000 0.000000 -0.000001 -0.000004 0.000002 -0.000000 -0.000004 0.000002 -0.000001 -0.000001 -0.000005 0.000002 -0.000002 0.000000 0.000003 -0.000001 0.000004 -0.000001 0.000001 -0.000001 0.000001 -0.000002 39.691469 -6.592743 -5.497419 36.569369 -4.134809 -10.387864 18.383550 -18.860171 -15.460026 3.962571 -11.456474 -2.401561 0.000003 0.000001 -0.000001 0.000002 -0.000001 0.000001 -0.000006 -0.000001 0.000002 -0.000011 -0.000002 -0.000005 0.000002 -0.000004 0.000002 -0.000001 0.000004 0.000000 0.000001 -0.000001 0.000000 -0.000007 -0.000003 0.000000 -0.000001 -0.000001 0.000001 -0.000003 -0.000000 0.000002 -0.000006 0.000001 0.000003 -0.000006 0.000000 -0.000002 0.000003 0.000000 -0.000001 0.000001 0.000000 -0.000002 -0.000005 -0.000001 -0.000001 0.000007 0.000003 0.000005 0.000002 0.000001 -0.000003 -0.000001 0.000002 0.000001 -0.000009 0.000001 0.000000 
-0.000000 -0.000001 50.759933 -0.000152 6.547555 2.668583 -5.119281 -8.575600 -26.132504 0.306518 -0.492286 9.351139 3.783641 3.834694 -17.040238 2.494677 -3.532893 11.954592 -0.369661 0.574826 11.023881 -3.488475 -2.319798 -2.956243 -0.238443 -5.113270 -0.006179 0.000000 -0.000000 0.000000 0.000000 -0.000000 0.000000 0.000000 -0.000000 0.000000 -0.047867 -1.070048 -0.000459 0.000001 0.000021 -3.131922 -40.321537 -6.863033 5.611952 -36.737327 -1.996826 8.579214 -19.420316 -5.361839 14.374900 0.000090 -0.000034 -0.000026 0.000004 0.000001 0.000003 -0.000003 -0.000001 -0.000002 -0.000001 -0.000001 -0.000002 -0.000001 0.000000 -0.000000 0.000002 -0.000000 -0.000001 0.000004 -0.000000 0.000000 -0.000001 0.000000 0.000001 0.000005 0.000003 0.000002 0.000000 0.000000 0.000000 0.000000 -0.000003 -0.000001 0.000003 -0.000003 0.000000 0.000005 -0.000002 0.000001 0.000000 0.000000 -0.000001 0.000001 -0.000000 -0.000001 0.000002 -0.000003 -0.000002 -0.000002 -0.000000 0.000000 0.000000 0.000001 0.000001 0.000005 0.000002 0.000001 -0.000001 -0.000001 0.000001 39.678816 -6.863034 -5.722271 36.545255 -4.255890 -10.769163 18.227798 -19.321794 -16.089294 3.975404 -11.986718 -3.002348 0.000002 -0.000005 0.000003 0.000004 0.000001 0.000002 -0.000006 0.000002 0.000000 -0.000015 -0.000002 -0.000005 0.000000 -0.000000 0.000001 0.000000 0.000003 0.000000 0.000002 -0.000000 -0.000001 -0.000012 -0.000000 0.000000 0.000000 -0.000001 0.000006 -0.000000 -0.000001 0.000002 -0.000007 0.000002 0.000002 -0.000010 -0.000001 -0.000001 0.000002 0.000002 -0.000001 0.000003 0.000001 -0.000001 -0.000002 -0.000004 -0.000004 0.000008 -0.000001 0.000002 -0.000002 -0.000002 -0.000001 -0.000001 -0.000003 0.000003 -0.000006 -0.000000 0.000001 
-0.000000 -0.000001 50.210777 0.000019 6.255800 2.666893 -5.026746 -7.936917 -30.111931 0.710709 -0.948888 19.193076 3.954366 3.649326 2.808454 2.571327 -3.354254 10.074583 -0.701164 0.939928 18.976045 -3.542834 -2.266542 -1.278693 -0.228683 -4.885173 -0.004835 -0.000000 -0.000000 0.000000 -0.000000 -0.000000 0.000000 -0.000000 -0.000000 0.000000 -0.047643 -1.022553 -0.000459 0.000001 0.000025 -3.131922 -40.306797 -6.557295 5.360982 -36.756062 -1.858443 8.149255 -19.535980 -4.825962 13.710350 -0.069411 -0.803516 2.916495 0.000002 -0.000001 -0.000003 -0.000003 -0.000002 -0.000000 -0.000000 0.000000 -0.000000 -0.000004 -0.000000 -0.000002 0.000007 0.000001 0.000000 0.000002 -0.000000 0.000000 -0.000002 0.000000 0.000001 0.000005 0.000002 -0.000001 -0.000000 -0.000001 -0.000001 -0.000001 0.000001 -0.000001 0.000002 0.000002 0.000001 0.000003 -0.000001 -0.000004 0.000000 -0.000001 -0.000004 -0.000000 -0.000000 -0.000002 0.000002 -0.000001 -0.000001 -0.000004 0.000001 -0.000003 -0.000002 -0.000003 0.000002 0.000004 0.000000 -0.000000 -0.000001 0.000002 0.000000 39.693200 -6.557295 -5.467929 36.572378 -4.118908 -10.337844 18.403542 -18.799443 -15.377618 2.456699 -13.012343 -5.952923 0.000002 -0.000002 0.000003 0.000002 0.000001 -0.000002 -0.000007 0.000000 -0.000003 -0.000014 0.000000 -0.000005 -0.000001 0.000005 0.000002 -0.000000 0.000003 0.000000 0.000001 0.000002 0.000000 -0.000011 -0.000001 0.000004 -0.000002 -0.000001 0.000003 -0.000003 -0.000001 0.000001 -0.000007 0.000000 0.000000 -0.000009 -0.000000 -0.000001 0.000001 -0.000000 0.000005 0.000001 -0.000001 -0.000001 -0.000002 -0.000006 0.000001 0.000004 -0.000002 0.000005 0.000002 0.000001 -0.000002 -0.000001 0.000002 0.000000 -0.000009 -0.000001 0.000002 
-0.000000 -0.000001 49.628929 0.000066 5.360892 2.665830 -4.797737 -6.715664 -32.048474 1.191141 -1.331226 29.140107 4.068128 3.306321 -0.424301 2.712074 -2.599339 7.730138 -1.114640 1.280297 27.615889 -3.611805 -2.192756 3.152133 -0.195090 -4.185967 -0.003489 -0.000000 0.000000 -0.000000 -0.000000 0.000000 -0.000000 -0.000000 0.000000 -0.000000 -0.040847 -0.876683 -0.000459 0.000002 0.000028 -3.131922 -40.262626 -5.619409 4.590805 -36.806995 -1.432845 6.829876 -19.852568 -3.167434 11.672710 -0.259542 -1.646019 7.783485 -0.000000 -0.000001 -0.000000 -0.000004 -0.000001 0.000000 -0.000001 0.000000 -0.000001 -0.000004 0.000001 -0.000005 0.000007 -0.000000 0.000000 0.000004 -0.000003 0.000002 -0.000002 -0.000001 0.000000 0.000004 0.000000 -0.000001 -0.000002 0.000001 -0.000001 -0.000000 -0.000000 -0.000000 0.000002 -0.000001 0.000001 0.000005 0.000001 0.000001 0.000001 -0.000004 -0.000000 0.000001 0.000001 0.000000 0.000001 -0.000001 -0.000000 -0.000004 0.000001 0.000000 -0.000002 -0.000002 -0.000001 0.000004 -0.000003 0.000003 -0.000001 0.000001 0.000000 39.737545 -5.619407 -4.688381 36.649152 -3.697238 -9.014683 18.898888 -17.178158 -13.209057 -0.684645 -14.090650 -10.947511 0.000004 0.000001 -0.000000 0.000001 0.000004 -0.000001 -0.000008 0.000001 -0.000002 -0.000010 -0.000003 -0.000008 0.000002 0.000002 -0.000001 0.000000 0.000004 0.000000 -0.000001 0.000003 -0.000002 -0.000008 -0.000004 -0.000002 -0.000001 0.000000 0.000006 -0.000001 0.000003 0.000003 -0.000004 0.000003 0.000001 -0.000007 0.000001 -0.000000 0.000004 -0.000003 -0.000003 0.000002 0.000001 -0.000001 -0.000002 -0.000001 0.000004 0.000008 -0.000001 0.000000 0.000001 0.000000 -0.000003 -0.000000 0.000001 -0.000004 -0.000005 0.000002 -0.000003 
-0.000000 -0.000000 49.406578 0.000092 4.235056 2.664737 -4.570235 -5.476073 -30.664011 1.469884 -1.500107 34.366240 4.070178 3.009415 -6.915145 2.868049 -1.598862 5.642212 -1.437733 1.482628 33.765057 -3.667107 -2.123195 10.119916 -0.154100 -3.306525 -0.002554 -0.000000 -0.000000 -0.000000 -0.000000 -0.000000 -0.000000 -0.000000 -0.000000 -0.000000 -0.032285 -0.692917 -0.000459 0.000002 0.000032 -3.131922 -40.207073 -4.439418 3.621063 -36.857210 -0.895326 5.168955 -20.168014 -1.053269 9.109071 -0.596350 -1.564357 10.150828 0.000001 -0.000001 -0.000002 -0.000003 -0.000001 -0.000002 -0.000001 -0.000000 -0.000002 -0.000004 -0.000001 -0.000004 0.000005 0.000001 -0.000002 0.000004 -0.000000 0.000002 -0.000001 -0.000001 0.000000 0.000004 -0.000001 -0.000005 -0.000000 -0.000000 0.000002 -0.000000 0.000001 -0.000002 0.000002 -0.000001 -0.000001 0.000003 -0.000002 -0.000000 0.000000 0.000000 -0.000001 0.000002 0.000000 -0.000004 0.000003 0.000000 -0.000001 -0.000003 0.000002 -0.000003 -0.000000 -0.000000 0.000002 0.000005 -0.000001 0.000002 -0.000000 0.000000 0.000000 39.792744 -4.439410 -3.708911 36.732788 -3.163822 -7.349792 19.428458 -15.102035 -10.509788 -2.063269 -14.058438 -13.354419 0.000001 0.000002 0.000002 0.000002 0.000001 -0.000003 -0.000008 0.000002 0.000000 -0.000016 0.000002 -0.000005 -0.000000 0.000004 -0.000003 0.000000 0.000004 0.000003 -0.000001 0.000003 0.000000 -0.000011 -0.000001 -0.000001 -0.000001 -0.000003 -0.000004 -0.000001 0.000001 0.000001 -0.000005 0.000003 0.000002 -0.000007 -0.000001 -0.000002 0.000003 0.000004 -0.000001 0.000001 0.000001 0.000000 -0.000002 -0.000002 -0.000004 0.000006 -0.000001 0.000002 -0.000001 0.000003 -0.000000 -0.000001 0.000002 0.000000 -0.000005 0.000001 0.000002 
-0.000000 -0.000000 49.805565 0.000093 2.996008 2.663749 -4.375450 -4.349938 -26.561262 1.436072 -1.482496 33.763346 3.999421 2.831868 -10.301236 3.226210 -0.759579 -1.939067 -1.977340 1.724085 43.315762 -3.749258 -2.065344 20.872016 -0.109023 -2.338934 -0.002232 0.000000 0.000000 0.000000 0.000000 0.000000 0.000000 0.000000 0.000000 0.000000 -0.022849 -0.490395 -0.000459 0.000002 0.000035 -3.131922 -40.146585 -3.140646 2.552670 -36.894438 -0.301733 3.339802 -20.406611 1.301185 6.284047 -1.154936 0.146559 7.914339 0.000002 0.000002 -0.000003 -0.000004 -0.000000 0.000000 -0.000001 0.000000 -0.000003 -0.000002 0.000001 -0.000001 0.000004 0.000000 -0.000002 0.000004 0.000001 -0.000001 -0.000001 -0.000000 0.000001 0.000004 0.000002 -0.000001 -0.000002 0.000001 -0.000003 0.000001 0.000000 -0.000003 0.000003 0.000001 -0.000005 0.000004 0.000001 -0.000002 0.000001 0.000000 -0.000001 0.000003 -0.000000 0.000001 0.000002 -0.000000 -0.000002 -0.000002 0.000006 -0.000001 0.000001 0.000001 0.000001 0.000006 0.000000 -0.000002 -0.000002 -0.000001 -0.000001 39.853416 -3.140642 -2.632482 36.806435 -2.573615 -5.517341 19.891654 -12.778613 -7.572659 -0.958872 -12.322069 -11.024455 0.000000 0.000002 0.000001 0.000000 0.000003 0.000003 -0.000008 -0.000000 -0.000000 -0.000017 0.000006 -0.000005 -0.000000 0.000004 -0.000000 -0.000001 0.000003 0.000000 0.000000 0.000002 0.000002 -0.000010 -0.000002 0.000002 -0.000001 0.000001 0.000001 -0.000001 -0.000003 -0.000002 -0.000005 -0.000000 0.000001 -0.000008 -0.000003 -0.000001 -0.000001 0.000005 0.000002 0.000001 -0.000000 -0.000001 -0.000002 -0.000003 0.000000 0.000005 0.000002 -0.000000 -0.000001 0.000004 -0.000001 -0.000000 -0.000000 0.000000 -0.000007 0.000001 -0.000000 
